<svg xmlns="http://www.w3.org/2000/svg" width="80" height="80" viewBox="0 0 80 80">
    <path d="M57.817 48.37h-3.655V26.58c0-2.755-2.242-4.997-4.998-4.997h-2.227c-.18-.717-.466-1.391-.841-2.006l4.185-6.052h6.063V10h-7.89l-4.911 7.08c-1.07-.622-2.31-.981-3.635-.981-1.319 0-2.556.356-3.622.974L31.379 10h-9.336v3.525h7.509l4.177 6.04c-.38.617-.669 1.296-.85 2.018h-2.227c-2.755 0-4.997 2.242-4.997 4.998v21.79h-3.612v3.525h3.612v3.948c0 2.756 2.242 4.998 4.997 4.998h2.85V70h12.811v-9.158h2.85c2.756 0 4.998-2.242 4.998-4.998v-3.948h3.656v-3.525zM39.908 19.625c2.052 0 3.721 1.67 3.721 3.721 0 2.052-1.669 3.722-3.721 3.722s-3.721-1.67-3.721-3.722 1.67-3.721 3.721-3.721zM29.18 26.581c0-.812.66-1.473 1.472-1.473h2.227c.79 3.147 3.641 5.484 7.029 5.484s6.24-2.337 7.029-5.484h2.227c.812 0 1.472.66 1.472 1.473v6.753H29.18V26.58zm13.608 39.894h-5.76v-17.75h5.76v17.75zm7.848-10.63c0 .811-.66 1.472-1.472 1.472h-2.85V45.2H33.502v12.117h-2.85c-.813 0-1.473-.66-1.473-1.473V36.86h21.456v18.985z" opacity=".4"/>
</svg>
