<svg xmlns="http://www.w3.org/2000/svg" width="20" height="20" viewBox="0 0 20 20">
    <path fill="#FFF" d="M14.666 5.828c-2.437-2.437-6.401-2.437-8.839 0-2.436 2.437-2.436 6.402 0 8.839 1.22 1.218 2.82 1.827 4.42 1.827s3.2-.609 4.42-1.827c2.436-2.437 2.436-6.402 0-8.84zm-1.841 6.26c.203.204.203.534 0 .737-.102.102-.235.153-.369.153-.133 0-.266-.051-.368-.153l-1.84-1.841-1.842 1.84c-.102.102-.235.153-.368.153s-.266-.05-.368-.152c-.204-.204-.204-.534 0-.737l1.84-1.84-1.84-1.842c-.204-.204-.204-.533 0-.736.203-.204.532-.204.736 0l1.841 1.84 1.841-1.84c.204-.204.533-.204.737 0 .203.203.203.532 0 .736l-1.841 1.841 1.84 1.842z"/>
</svg>
