<svg xmlns="http://www.w3.org/2000/svg" width="20" height="20" viewBox="0 0 20 20">
    <g fill="#FFF">
        <path d="M1.093 11.882c.014.337.29.602.627.602h5.866c.336 0 .613-.265.627-.602l.42-8.842H.672l.42 8.842zM5.98 5.236c0-.14.114-.255.255-.255h.408c.14 0 .255.114.255.255v5.052c0 .14-.114.255-.255.255h-.408c-.141 0-.255-.114-.255-.255V5.236zm-1.786 0c0-.14.114-.255.255-.255h.408c.14 0 .255.114.255.255v5.052c0 .14-.114.255-.255.255h-.408c-.141 0-.255-.114-.255-.255V5.236zm-1.786 0c0-.14.114-.255.255-.255h.408c.14 0 .255.114.255.255v5.052c0 .14-.114.255-.255.255h-.408c-.141 0-.255-.114-.255-.255V5.236zM8.911.643H6.205V.132C6.205.059 6.146 0 6.074 0H3.232c-.072 0-.131.059-.131.132v.511H.395C.177.643 0 .82 0 1.037v1.239h9.305V1.037c0-.217-.176-.394-.394-.394z" transform="translate(5.5 4)"/>
    </g>
</svg>
