<svg xmlns="http://www.w3.org/2000/svg" width="20" height="20" viewBox="0 0 20 20">
    <path fill="#FFF" d="M5.891 14.484c-1-1-1-2.626 0-3.625l3.493-3.493c.706-.706 1.596-1.182 2.575-1.378l.01-.002 1.924-.358c.237-.044.48.032.651.203.171.17.247.414.203.651l-.358 1.924-.002.01c-.196.979-.672 1.87-1.378 2.575l-3.493 3.493c-.999 1-2.625 1-3.625 0zm6.35-7.059c-.692.14-1.322.477-1.821.977l-3.493 3.492c-.428.429-.428 1.126 0 1.554.428.428 1.125.428 1.554 0l3.492-3.493c.5-.499.837-1.129.977-1.821l.161-.87-.87.161z"/>
</svg>
