<svg xmlns="http://www.w3.org/2000/svg" width="80" height="80" viewBox="0 0 80 80">
    <g fill="#999">
        <path d="M60 3.524h-9.969V.006H38.306v3.518H21.694V.006H9.97v3.518H0v14.071h3.518v28.337h52.963V17.595H60V3.525zm-7.034 38.892H7.034v-24.82h45.932v24.82zm3.518-28.337H3.516V7.04h9.969V3.522h4.694V7.04H41.82V3.52h4.694V7.04h9.97v7.04z" transform="translate(10 18)"/>
        <path d="M42.411 35.283L45.926 35.283 45.926 31.763 49.446 31.763 49.446 28.248 45.926 28.248 45.926 24.728 42.411 24.728 42.411 28.248 38.891 28.248 38.891 31.763 42.411 31.763zM10.554 28.248L21.109 28.248 21.109 31.763 10.554 31.763z" transform="translate(10 18)"/>
    </g>
</svg>
