<svg xmlns="http://www.w3.org/2000/svg" width="80" height="80" viewBox="0 0 80 80">
    <path fill="#FFF" d="M62.545 39.819L70 32.364 47.636 10l-7.455 7.455 2.485 2.484-2.485 2.486-2.484-2.486-2.486 2.486 2.486 2.484-2.486 2.485-4.97-4.97-9.939 9.94 7.455 7.455 2.485-2.485 2.383 2.383-6.216 6.388c-4.43-1.569-9.44-.477-12.811 2.894-2.32 2.32-3.598 5.408-3.598 8.697 0 3.288 1.278 6.377 3.598 8.697 2.397 2.398 5.547 3.596 8.697 3.596 3.15 0 6.3-1.198 8.697-3.596 3.379-3.379 4.467-8.406 2.882-12.844l6.206-6.377 2.586 2.586-2.484 2.485 7.454 7.455 9.94-9.94-4.97-4.97 2.485-2.485 2.485 2.486 2.485-2.486-2.485-2.484 2.485-2.485 2.484 2.485zm-14.909-24.85L65.03 32.365l-2.485 2.485-17.394-17.394 2.485-2.485zM16.083 63.91c-3.032-3.032-3.352-7.689-1.118-11.058l2.574 2.574c-.933 1.959-.591 4.378 1.029 5.998 1.027 1.028 2.377 1.542 3.727 1.542.777 0 1.555-.172 2.271-.513l2.574 2.573c-3.41 2.255-8.058 1.883-11.057-1.117zm7.454-4.97c-.685.684-1.8.684-2.485 0-.686-.688-.686-1.799 0-2.486.687-.686 1.798-.686 2.485 0 .685.685.685 1.8 0 2.485zm6.16-6.136l.526 1.105c1.34 2.815 1.071 6.097-.6 8.63l-2.572-2.57c.933-1.96.59-4.38-1.029-6-1.62-1.619-4.04-1.961-5.998-1.028l-2.572-2.572c2.534-1.671 5.815-1.941 8.631-.6l1.137.542 7.89-8.108 2.484 2.485-7.898 8.116zm17.939 1.925l-2.485-2.485 2.485-2.485-17.394-17.394-2.485 2.485-2.485-2.485 4.97-4.97 22.364 22.364-4.97 4.97zm2.485-12.425L37.697 29.88l2.484-2.485L52.606 39.82l-2.485 2.484zm4.97-4.969L42.666 24.909l2.485-2.484 12.424 12.424-2.484 2.485z"/>
</svg>
