<svg xmlns="http://www.w3.org/2000/svg" width="1440" height="297" viewBox="0 0 1440 297">
    <defs>
        <filter id="prefix__a" width="103.4%" height="117.5%" x="-1.7%" y="-8.7%" filterUnits="objectBoundingBox">
            <feGaussianBlur in="SourceGraphic" stdDeviation="10"/>
        </filter>
    </defs>
    <g fill="none" fill-rule="evenodd">
        <path fill="#000" d="M1790.347 107.211s-84.622 278.02-340.39 255.49C1194.19 340.17 1072.105 34.572 720.561 99.18c-351.548 64.606-323.829 240.505-577.982 77.124C-92.375 72.768-36.946 21 308.865 21H1822l-31.653 86.211z" opacity=".201" transform="rotate(-180 856 184)"/>
        <path fill="#23292F" d="M1790.347 86.211s-84.622 278.02-340.39 255.49C1194.19 319.17 1072.105 13.572 720.561 78.18c-351.548 64.606-323.829 240.505-577.982 77.124C-92.375 51.768-36.946 0 308.865 0H1822l-31.653 86.211z" transform="rotate(-180 856 184)"/>
        <path fill="#000" d="M1786.837 0s41.57 364.065-239.76 342.04C1265.751 320.01 1131.465 21.251 744.781 84.41 358.098 147.571 279.554 292.861 0 133.135V0h1786.837z" filter="url(#prefix__a)" transform="rotate(-180 856 184)"/>
        <path fill="#23292F" d="M1786.837 0s41.57 364.065-239.76 342.04C1265.751 320.01 1131.465 21.251 744.781 84.41 358.098 147.571 279.554 292.861 0 133.135V0h1786.837z" transform="rotate(-180 856 184)"/>
    </g>
</svg>
