<svg xmlns="http://www.w3.org/2000/svg" width="40" height="40" viewBox="0 0 40 40">
    <path fill="#0B0B0B" d="M18.123 5c3.877 0 7.031 3.088 7.031 6.883v4.133h1.408c2.585 0 4.688 2.102 4.688 4.687v2.344c0 .647-.525 1.172-1.172 1.172-.647 0-1.172-.525-1.172-1.172v-2.344c0-1.292-1.051-2.344-2.344-2.344H9.687c-1.292 0-2.343 1.052-2.343 2.344v9.61c0 1.292 1.051 2.343 2.343 2.343h9.258c.647 0 1.172.525 1.172 1.172 0 .647-.525 1.172-1.172 1.172H9.687C7.103 35 5 32.897 5 30.312v-9.609c0-2.585 2.103-4.687 4.687-4.687h1.405v-4.133c0-3.795 3.154-6.883 7.03-6.883zm14.752 19.357c.377-.526 1.109-.648 1.635-.27.526.376.648 1.108.27 1.634l-5.799 8.101-.04.052c-.526.656-1.309 1.063-2.148 1.12-.066.004-.132.006-.198.006-.77 0-1.519-.297-2.08-.83l-.01-.01-3.74-3.65c-.462-.452-.471-1.194-.02-1.657.453-.463 1.195-.473 1.658-.02l3.733 3.642c.184.173.393.187.502.18.106-.007.303-.047.461-.23zm-8.07-.255c.647 0 1.171.524 1.171 1.171 0 .648-.524 1.172-1.171 1.172-.648 0-1.172-.524-1.172-1.172 0-.647.524-1.171 1.172-1.171zm-4.453 0c.647 0 1.171.524 1.171 1.171 0 .648-.524 1.172-1.171 1.172-.648 0-1.172-.524-1.172-1.172 0-.647.524-1.171 1.172-1.171zm-8.79 0c.648 0 1.172.524 1.172 1.171 0 .648-.524 1.172-1.172 1.172-.647 0-1.171-.524-1.171-1.172 0-.647.524-1.171 1.171-1.171zm4.395 0c.647 0 1.172.524 1.172 1.171 0 .648-.525 1.172-1.172 1.172-.647 0-1.172-.524-1.172-1.172 0-.647.525-1.171 1.172-1.171zm2.166-16.758c-2.585 0-4.688 2.036-4.688 4.539v4.133h9.375v-4.133c0-2.503-2.103-4.54-4.687-4.54z" opacity=".4"/>
</svg>
