<svg xmlns="http://www.w3.org/2000/svg" width="40" height="40" viewBox="0 0 40 40">
    <path fill="#F9F9F9" d="M20 5c8.28.01 14.99 6.72 15 15 0 8.284-6.716 15-15 15-8.284 0-15-6.716-15-15 0-8.284 6.716-15 15-15zm0 2.5C13.096 7.5 7.5 13.096 7.5 20S13.096 32.5 20 32.5c6.9-.008 12.492-5.6 12.5-12.5 0-6.904-5.596-12.5-12.5-12.5zm0 2.5c5.523 0 10 4.477 10 10s-4.477 10-10 10v-2.5c4.142 0 7.5-3.358 7.5-7.5 0-4.142-3.358-7.5-7.5-7.5-4.142 0-7.5 3.358-7.5 7.5H10c.006-5.52 4.48-9.994 10-10zm2.603 4.814c.39-.13.819-.06 1.147.186.329.246.515.638.5 1.049-.057 1.438-.291 4.923-1.25 6.201-.595.798-1.484 1.324-2.47 1.462-.178.026-.358.039-.538.039-1.419-.004-2.714-.808-3.347-2.077-.634-1.27-.496-2.789.355-3.924.959-1.278 4.238-2.479 5.603-2.936zm-.993 3.039c-1.303.538-2.372 1.097-2.61 1.397-.199.265-.284.599-.237.927.046.328.222.624.487.823.266.198.6.284.928.237.328-.047.624-.223.823-.488.22-.31.457-1.494.61-2.896z"/>
</svg>
