<svg xmlns="http://www.w3.org/2000/svg" width="40" height="40" viewBox="0 0 40 40">
    <path d="M32.656 18.02v2.343h-2.343v-1.816c0-1.939-1.577-3.516-3.516-3.516h-1.113v-2.344h-2.93v-2.343h1.758V8H13.965v2.344h1.7v2.344H12.44v2.44c-1.544.37-2.695 1.763-2.695 3.419v.644H7.344v-2.343H5v11.718h2.344v-2.285h2.405c.06 1.827 1.52 3.305 3.339 3.394l1.593 1.77c.665.74 1.618 1.164 2.613 1.164h9.503c1.939 0 3.515-1.577 3.515-3.515v-1.64h2.344v2.284H35V18.02h-2.344zm-14.648-7.676h2.402v2.344h-2.402v-2.344zM7.344 21.535h2.402v2.402H7.344v-2.402zm20.625 3.574v3.985c0 .646-.526 1.172-1.172 1.172h-9.503c-.332 0-.65-.142-.871-.388l-2.288-2.542h-.873c-.646 0-1.172-.526-1.172-1.172v-7.617c0-.646.526-1.172 1.172-1.172h1.523v-2.344h8.555v2.344h3.457c.646 0 1.172.526 1.172 1.172v4.16h4.687v2.402H27.97zm-8.32-3.632h4.078l-2.52 5.273-2.05 1.172v-2.227l.94-1.875h-4.081l2.578-5.8h2.56l-1.506 3.457z" opacity=".4"/>
</svg>
