<svg xmlns="http://www.w3.org/2000/svg" width="40" height="40" viewBox="0 0 40 40">
    <g fill="#FFF">
        <path d="M15 0C6.716 0 0 6.716 0 15c0 8.284 6.716 15 15 15 8.284 0 15-6.716 15-15C29.99 6.72 23.28.01 15 0zm0 27.5C8.096 27.5 2.5 21.904 2.5 15S8.096 2.5 15 2.5 27.5 8.096 27.5 15c-.008 6.9-5.6 12.492-12.5 12.5z" transform="translate(5 5)"/>
        <path d="M9.116 9.116l-3.75 3.75 1.768 1.768 1.616-1.616V20h2.5v-6.982l1.616 1.616 1.768-1.768-3.75-3.75c-.235-.234-.552-.366-.884-.366-.332 0-.65.132-.884.366zM22.866 15.366l-1.616 1.616V10h-2.5v6.982l-1.616-1.616-1.768 1.768 3.75 3.75c.491.481 1.277.481 1.768 0l3.75-3.75-1.768-1.768z" transform="translate(5 5)"/>
    </g>
</svg>
