<svg xmlns="http://www.w3.org/2000/svg" width="40" height="40" viewBox="0 0 40 40">
    <g fill="#FFF">
        <path d="M24.463 19.298v-1.544c0-1.939-1.577-3.516-3.516-3.516-1.938 0-3.515 1.577-3.515 3.516v1.525c-1.87.616-3.223 2.378-3.223 4.451v1.582c0 2.585 2.103 4.688 4.687 4.688h4.043c2.585 0 4.688-2.103 4.688-4.688V23.73c0-2.051-1.325-3.798-3.164-4.432zm-4.688-1.544c0-.646.526-1.172 1.172-1.172.646 0 1.172.526 1.172 1.172v1.289h-2.344v-1.29zm5.508 7.558c0 1.293-1.051 2.344-2.344 2.344h-4.043c-1.292 0-2.343-1.051-2.343-2.343V23.73c0-1.292 1.051-2.343 2.343-2.343h4.043c1.293 0 2.344 1.051 2.344 2.343v1.582zM19.365 7.91c0-4.362-3.548-7.91-7.91-7.91s-7.91 3.548-7.91 7.91 3.548 7.91 7.91 7.91 7.91-3.548 7.91-7.91zm-7.91 5.567c-3.07 0-5.566-2.498-5.566-5.567 0-3.07 2.497-5.566 5.566-5.566 3.07 0 5.566 2.497 5.566 5.566 0 3.07-2.497 5.567-5.566 5.567z" transform="translate(6 5)"/>
        <path fill-opacity=".497" d="M1.201 30C.554 30 .03 29.475.03 28.828c0-5.88 4.784-10.664 10.664-10.664h1.172c.647 0 1.172.525 1.172 1.172 0 .647-.525 1.172-1.172 1.172h-1.172c-4.587 0-8.32 3.732-8.32 8.32 0 .647-.525 1.172-1.172 1.172zm19.707-6.914c-.809 0-1.465.656-1.465 1.465s.656 1.465 1.465 1.465c.81 0 1.465-.656 1.465-1.465 0-.81-.656-1.465-1.465-1.465z" transform="translate(6 5)"/>
    </g>
</svg>
