<svg xmlns="http://www.w3.org/2000/svg" width="30" height="30" viewBox="0 0 30 30">
    <g fill="none">
        <path fill="#000" d="M3.567 9.254c0-4.194 3.082-7.668 7.105-8.28C10.257.91 9.832.876 9.4.876c-4.626 0-8.377 3.75-8.377 8.377 0 4.627 3.75 8.378 8.377 8.378.433 0 .857-.033 1.272-.096-4.023-.613-7.105-4.087-7.105-8.282z" opacity=".1" transform="translate(3.75 3.75)"/>
        <path fill="#DB3E37" d="M9.263 18.509c-5.103 0-9.254-4.152-9.254-9.255C.009 4.151 4.16 0 9.263 0s9.254 4.151 9.254 9.254-4.151 9.255-9.254 9.255zm0-16.755c-4.136 0-7.5 3.365-7.5 7.5 0 4.136 3.364 7.5 7.5 7.5s7.5-3.364 7.5-7.5c0-4.135-3.364-7.5-7.5-7.5z" transform="translate(3.75 3.75)"/>
        <path fill="#DB3E37" fill-opacity=".5" d="M21.588 22.473c-.225 0-.45-.085-.62-.257l-3.926-3.925c-.343-.343-.343-.898 0-1.24.342-.343.898-.343 1.24 0l3.926 3.925c.342.342.342.898 0 1.24-.171.172-.396.257-.62.257z" transform="translate(3.75 3.75)"/>
    </g>
</svg>
